<svg width="35" height="34" viewBox="0 0 35 34" fill="none" xmlns="http://www.w3.org/2000/svg">
<circle cx="17.5" cy="17" r="17" fill="black"/>
<path d="M9.81776 25H13.3131V13.6844H9.81776V25Z" fill="#FF8800"/>
<path d="M9.5 10.0719C9.5 11.1875 10.4003 12.0906 11.5654 12.0906C12.6776 12.0906 13.5779 11.1875 13.5779 10.0719C13.5779 8.95625 12.6776 8 11.5654 8C10.4003 8 9.5 8.95625 9.5 10.0719Z" fill="#FF8800"/>
<path d="M22.9517 25H26.5V18.7844C26.5 15.7562 25.8115 13.3656 22.2632 13.3656C20.5685 13.3656 19.4034 14.3219 18.9268 15.225H18.8738V13.6844H15.5374V25H19.0327V19.4219C19.0327 17.9344 19.2975 16.5 21.1511 16.5C22.9517 16.5 22.9517 18.2 22.9517 19.475V25Z" fill="#FF8800"/>
</svg>
